<svg id="Camada_1" data-name="Camada 1" xmlns="http://www.w3.org/2000/svg" xmlns:xlink="http://www.w3.org/1999/xlink" viewBox="0 0 1080 1080"><defs><style>.cls-1{fill:#0f1a2e;}.cls-2{isolation:isolate;}.cls-3{fill:#b2812c;}.cls-4{fill:url(#Gradiente_sem_nome);}.cls-5{fill:url(#Gradiente_sem_nome_2);}.cls-6{fill:#b18028;}</style><linearGradient id="Gradiente_sem_nome" x1="162" y1="538.13" x2="751.82" y2="538.13" gradientTransform="matrix(1, 0, 0, -1, 0, 1077.53)" gradientUnits="userSpaceOnUse"><stop offset="0" stop-color="#b18029"/><stop offset="0.11" stop-color="#c59a43"/><stop offset="0.21" stop-color="#cfac54"/><stop offset="0.47" stop-color="#f4df70"/><stop offset="0.67" stop-color="#edc073"/><stop offset="0.8" stop-color="#c39037"/><stop offset="0.92" stop-color="#b18029"/></linearGradient><linearGradient id="Gradiente_sem_nome_2" x1="721.3" y1="536.78" x2="918" y2="536.78" xlink:href="#Gradiente_sem_nome"/></defs><g id="Camada_4" data-name="Camada 4"><rect class="cls-1" width="1080" height="1080"/></g><g class="cls-2"><path class="cls-3" d="M617.37,847.86q7.21,0,11.63,3.76a13.74,13.74,0,0,1,2.39,18Q627,876,617.42,876q-7.17,0-11.58-3.77a12.92,12.92,0,0,1-4.7-10.32,13.37,13.37,0,0,1,2.29-7.67,13.79,13.79,0,0,1,6.83-5.24A21,21,0,0,1,617.37,847.86Zm0,2.8a12.75,12.75,0,0,0-9.48,3.62,10.94,10.94,0,0,0,0,15.34,14.35,14.35,0,0,0,19.06,0,10.27,10.27,0,0,0,3.14-7.53,10.46,10.46,0,0,0-3.14-7.81A13.2,13.2,0,0,0,617.37,850.66Z" transform="translate(0 0)"/><path class="cls-3" d="M643.26,852.66v20.07a2.5,2.5,0,0,0,.3,1.41,2.11,2.11,0,0,0,1.24.67v.65h-6v-.65a2.15,2.15,0,0,0,1.25-.67,2.5,2.5,0,0,0,.3-1.41V851.16a2.39,2.39,0,0,0-.32-1.42,2.19,2.19,0,0,0-1.23-.65v-.65h8.78v.65c-.83.27-1.25.69-1.25,1.25a2.85,2.85,0,0,0,.92,1.74l15.94,17.85V851.16a2.4,2.4,0,0,0-.31-1.42,2.27,2.27,0,0,0-1.23-.65v-.65h6v.65a2.27,2.27,0,0,0-1.23.65,2.4,2.4,0,0,0-.31,1.42v21.57a2.5,2.5,0,0,0,.3,1.41,2.08,2.08,0,0,0,1.24.67v.65h-7.07v-.65c.84-.21,1.25-.54,1.25-1s-.38-.94-1.15-1.81Z" transform="translate(0 0)"/><path class="cls-3" d="M678.43,862.82v10h16.7a2.46,2.46,0,0,0,1.43-.31,2.08,2.08,0,0,0,.64-1.24h.68V877h-.68a2.08,2.08,0,0,0-.63-1.23,2.38,2.38,0,0,0-1.42-.31H673.44v-.65a2.08,2.08,0,0,0,1.24-.67,2.5,2.5,0,0,0,.3-1.41V851.16a2.4,2.4,0,0,0-.31-1.42,2.27,2.27,0,0,0-1.23-.65v-.65H695a2.43,2.43,0,0,0,1.43-.32,2.19,2.19,0,0,0,.65-1.23h.65v5.72h-.65a2.19,2.19,0,0,0-.65-1.23,2.44,2.44,0,0,0-1.43-.31H678.43v9.12H689a2.42,2.42,0,0,0,1.42-.32,2.27,2.27,0,0,0,.65-1.23h.65v5.72h-.65a2.13,2.13,0,0,0-.66-1.23,2.43,2.43,0,0,0-1.41-.31Z" transform="translate(0 0)"/></g><path class="cls-4" d="M749,437.9c-19.7-95.3-97.5-166.8-189.1-176.8-107.5-11.8-214,63.2-239,176.8V919H289.3l-93.9-1.2V161l92.8-1.2h36.4V302.7L357.9,270V128.3H162V950.5H357.8v-.4h0V808.8s-.9-247.1-1.2-370.5c3.9-17.8,15.8-59.5,53.2-95.6,19-18.3,66.9-56.8,134.6-53.3,61.6,3.2,101.3,39.2,115,51.9,49.9,46.6,58.9,104.3,60.9,121.5.7,10.6,4.4,87.3-56.8,143.3-48.8,44.7-106.9,47.1-121.5,47.3a181.18,181.18,0,0,1-63.1-9.4,178.1,178.1,0,0,1-67.7-41.5c-2.6,11.1-5.2,22.3-7.7,33.4a214.6,214.6,0,0,0,138.6,47.9c12.3-.2,100.9-3,162.4-77.3C764.7,533.9,751.2,450.1,749,437.9Z" transform="translate(0 0)"/><polygon class="cls-5" points="917.5 131.7 917.5 130.9 791.5 131.7 721.3 131.7 721.3 271.6 751.8 302 751.8 162.1 884.2 162.1 884.2 918.9 755.1 918.9 755.1 776.2 721.7 809 721.7 950.1 721.3 950.6 918 950.6 918 131.7 917.5 131.7"/><path class="cls-6" d="M436.5,918.2c8.2,3,12.3,8.3,12.3,15.7a15.88,15.88,0,0,1-6.2,13,21.65,21.65,0,0,1-8.1,3.8,55.77,55.77,0,0,1-12.2,1.1H379v-1.5a6,6,0,0,0,3.2-1.6,5.71,5.71,0,0,0,.8-3.3V894.3a5.85,5.85,0,0,0-.8-3.4,5.59,5.59,0,0,0-3.2-1.5v-1.5h42a59.42,59.42,0,0,1,10.6.8,21.35,21.35,0,0,1,7.1,2.6,16,16,0,0,1,7.8,13.7C446.5,910.7,443.2,915.1,436.5,918.2ZM392,915.1h26.5a71.07,71.07,0,0,0,9.3-.4,14.38,14.38,0,0,0,5.3-1.7,8.26,8.26,0,0,0,4.8-7.9,9.51,9.51,0,0,0-5.6-9,17.75,17.75,0,0,0-5.5-1.7,70.3,70.3,0,0,0-9.2-.4H392Zm0,30.4h27.9a71.89,71.89,0,0,0,9.7-.5,16.11,16.11,0,0,0,5.6-1.9,9.73,9.73,0,0,0,5.1-9.1,11,11,0,0,0-5.9-10.2,15.36,15.36,0,0,0-5.7-1.9,74.09,74.09,0,0,0-9.7-.5H392Z" transform="translate(0 0)"/><path class="cls-6" d="M511.6,933.7H474.9l-5.3,10.7a6.88,6.88,0,0,0-1,3q0,2,3.3,2.7v1.5H454.7v-1.5a7.11,7.11,0,0,0,3.9-1.8,19.56,19.56,0,0,0,3.3-5.3l23.2-46.1c1.3-2.6,1.9-4.3,1.9-5.3,0-1.3-1-2.2-3.1-2.5v-1.5h20.3v1.5c-2.1.4-3.1,1.2-3.1,2.5,0,.7.8,2.8,2.5,6.1L525.8,942a26.86,26.86,0,0,0,3.9,6.1,6.94,6.94,0,0,0,4.1,2v1.5H515.6v-1.5c1.9-.4,2.9-1,2.9-1.9a14.43,14.43,0,0,0-1.5-3.8Zm-2.9-6.2-15.3-31.4L478,927.5Z" transform="translate(0 0)"/><path class="cls-6" d="M552.4,897.7v47.6a5.28,5.28,0,0,0,.8,3.3,5.59,5.59,0,0,0,3.2,1.6v1.5H541v-1.5a5.59,5.59,0,0,0,3.2-1.6,5.71,5.71,0,0,0,.8-3.3V894.2a5.85,5.85,0,0,0-.8-3.4,5.59,5.59,0,0,0-3.2-1.5v-1.5h22.7v1.5c-2.2.6-3.2,1.6-3.2,3,0,1.1.8,2.5,2.4,4.1l41.3,42.3V894.2a5.85,5.85,0,0,0-.8-3.4,5.59,5.59,0,0,0-3.2-1.5v-1.5h15.4v1.5a6.79,6.79,0,0,0-3.2,1.5,5.63,5.63,0,0,0-.8,3.4v51.1a5.28,5.28,0,0,0,.8,3.3,5.59,5.59,0,0,0,3.2,1.6v1.5H597.3v-1.5c2.2-.5,3.2-1.3,3.2-2.3,0-.8-1-2.2-3-4.3Z" transform="translate(0 0)"/><path class="cls-6" d="M643.5,927v18.3a5.28,5.28,0,0,0,.8,3.3,5.59,5.59,0,0,0,3.2,1.6v1.5H630.6v-1.5a6,6,0,0,0,3.2-1.6,5.71,5.71,0,0,0,.8-3.3V894.2a5.85,5.85,0,0,0-.8-3.4,5.59,5.59,0,0,0-3.2-1.5v-1.5h16.9v1.5a6.79,6.79,0,0,0-3.2,1.5,5.63,5.63,0,0,0-.8,3.4v25.3L677,895.6a39.27,39.27,0,0,0,4.2-3.2,2.24,2.24,0,0,0,.8-1.5c0-.8-.8-1.3-2.3-1.6v-1.5h19.7v1.5a14,14,0,0,0-3.4.9,26.54,26.54,0,0,0-2.9,1.8l-27.9,19.9,30.9,36a7,7,0,0,0,2.2,1.9,8.09,8.09,0,0,0,2.7.5v1.5H682.4v-1.5q2.7-.6,2.7-1.5c0-.4-.7-1.5-2.2-3.3l-24.3-28.8Z" transform="translate(0 0)"/></svg>