<svg id="Camada_1" data-name="Camada 1" xmlns="http://www.w3.org/2000/svg" xmlns:xlink="http://www.w3.org/1999/xlink" viewBox="0 0 1080 1080"><defs><style>.cls-1{fill:#0f1a2e;}.cls-2{fill:url(#Gradiente_sem_nome);}.cls-3{fill:url(#Gradiente_sem_nome_2);}.cls-4{fill:url(#Gradiente_sem_nome_3);}.cls-5{fill:#b2812c;}.cls-6{isolation:isolate;}</style><linearGradient id="Gradiente_sem_nome" x1="368.3" y1="1355.42" x2="702.79" y2="1355.42" gradientTransform="translate(0 -840)" gradientUnits="userSpaceOnUse"><stop offset="0" stop-color="#b2812c"/><stop offset="0.11" stop-color="#c69b44"/><stop offset="0.21" stop-color="#cfad55"/><stop offset="0.47" stop-color="#f5e070"/><stop offset="0.67" stop-color="#edc173"/><stop offset="0.8" stop-color="#c59136"/><stop offset="0.92" stop-color="#b2812c"/></linearGradient><linearGradient id="Gradiente_sem_nome_2" x1="679.1" y1="1304.6" x2="831.8" y2="1304.6" xlink:href="#Gradiente_sem_nome"/><linearGradient id="Gradiente_sem_nome_3" x1="245" y1="1303.55" x2="397" y2="1303.55" xlink:href="#Gradiente_sem_nome"/></defs><g id="Camada_4" data-name="Camada 4"><rect class="cls-1" width="1080" height="1080"/></g><g id="Camada_3" data-name="Camada 3"><path class="cls-2" d="M397,788.2H368.3V383.4c19.5-89.8,102.1-149.1,185.5-139.8,71.1,7.9,131.6,64.4,146.8,139.8,1.7,9.7,12.2,75.9-34.6,133.4-47.7,58.7-116.5,60.9-126.1,61.1A164.69,164.69,0,0,1,432.3,540l6-26.4a139.4,139.4,0,0,0,52.6,32.8,135.65,135.65,0,0,0,49,7.4c11.3-.2,56.4-2.1,94.3-37.4,47.5-44.3,44.7-104.9,44.1-113.3-1.6-13.5-8.5-59.1-47.3-96-10.6-10.1-41.4-38.5-89.3-41-52.5-2.8-89.8,27.6-104.5,42.1-29,28.5-38.2,61.5-41.3,75.5Q396.65,585.9,397,788.2Z"/><polygon class="cls-3" points="679.1 251.6 679.1 141 831.8 141 831.8 788.2 679.1 788.2 679.1 571.1 702.8 544.3 702.8 763.1 807.8 763.1 807.8 165 702.8 165 702.8 275.6 679.1 251.6"/><g id="Camada_2" data-name="Camada 2"><polygon class="cls-4" points="245 138.6 245 788.5 342.9 788.5 342.9 762.7 270.9 762.7 270.9 163.6 371.1 163.6 371.1 276.5 397 250.6 397 138.6 245 138.6"/></g><path class="cls-5" d="M255.6,906.7H216.5v24.5a3.17,3.17,0,0,0,.7,2.3,5.28,5.28,0,0,0,2.5,1.3v1.6H198.6v-1.6a5.28,5.28,0,0,0,2.5-1.3,3.17,3.17,0,0,0,.7-2.3V873.7a3.17,3.17,0,0,0-.7-2.3,5.28,5.28,0,0,0-2.5-1.3v-1.6h21.1v1.6a4.53,4.53,0,0,0-2.5,1.3,3.17,3.17,0,0,0-.7,2.3v21.9h39.1V873.7a3.17,3.17,0,0,0-.7-2.3,5.28,5.28,0,0,0-2.5-1.3v-1.6h21.1v1.6a5.28,5.28,0,0,0-2.5,1.3,3.17,3.17,0,0,0-.7,2.3v57.5a3.17,3.17,0,0,0,.7,2.3,5.28,5.28,0,0,0,2.5,1.3v1.6H252.4v-1.6a4.53,4.53,0,0,0,2.5-1.3,3.17,3.17,0,0,0,.7-2.3V906.7Z"/><path class="cls-5" d="M303.8,908.8v22.4a3.17,3.17,0,0,0,.7,2.3,5.28,5.28,0,0,0,2.5,1.3v1.6H285.9v-1.6a5.28,5.28,0,0,0,2.5-1.3,3.17,3.17,0,0,0,.7-2.3V873.7a3.17,3.17,0,0,0-.7-2.3,5.28,5.28,0,0,0-2.5-1.3v-1.6h42.3a52.33,52.33,0,0,1,11.7,1,21.55,21.55,0,0,1,7.7,3.4,17.07,17.07,0,0,1,5.4,6.7,21.39,21.39,0,0,1,1.9,9,19.67,19.67,0,0,1-3.7,12,17.12,17.12,0,0,1-8.4,6.3c-3.5,1.3-8.4,1.9-14.6,1.9Zm0-11.2h22.6c4.5,0,7.7-.5,9.5-1.4a6.32,6.32,0,0,0,2.8-3,9.75,9.75,0,0,0,0-9,6.32,6.32,0,0,0-2.8-3c-1.8-1-5-1.4-9.5-1.4H303.8Z"/><path class="cls-5" d="M454.6,913l9.4,14.2-1.3.9a3.64,3.64,0,0,0-2.3-1.3c-.6,0-2.3.8-5,2.4a72.64,72.64,0,0,1-14.4,6.7,47.61,47.61,0,0,1-13.9,1.7c-10.7,0-19.5-2.5-26.3-7.6a32.4,32.4,0,0,1-9.5-11,34.24,34.24,0,0,1-4-16.6,33.34,33.34,0,0,1,7.2-21.4c7.2-9.1,18.1-13.7,32.7-13.7A50,50,0,0,1,441,869a66.79,66.79,0,0,1,14.4,6.7c2.8,1.6,4.4,2.3,5,2.3a3.64,3.64,0,0,0,2.3-1.3l1.3.9-9.4,14.2-1.3-.9a6.64,6.64,0,0,0,.1-1.3,3.73,3.73,0,0,0-1.2-2.7,19,19,0,0,0-4.4-3,37.62,37.62,0,0,0-18.6-5c-7.7,0-13.9,1.9-18.5,5.8a23.61,23.61,0,0,0,0,35.6c4.6,3.9,10.8,5.8,18.5,5.8a37.34,37.34,0,0,0,18.6-5,18.71,18.71,0,0,0,4.4-3.1,3.9,3.9,0,0,0,1.2-2.7,6.15,6.15,0,0,0-.1-1.3Z"/><path class="cls-5" d="M522.5,919H491.7l-4.6,9.5a8.32,8.32,0,0,0-.9,3.1q0,2.25,3.3,3v1.6H467.1v-1.6a6,6,0,0,0,3-1.4,14.82,14.82,0,0,0,2.4-3.9l24.9-52.2a10.13,10.13,0,0,0,1.2-4c0-1.5-1-2.6-2.9-3.3v-1.6h24v1.6c-2,.6-2.9,1.5-2.9,2.9a7.47,7.47,0,0,0,.9,3.3l25.8,52.3a15.78,15.78,0,0,0,2.9,4.5,6.82,6.82,0,0,0,3.3,1.6V936H524.8v-1.6c2.2-.4,3.3-1.4,3.3-3.1a7.61,7.61,0,0,0-1-3.1Zm-4.3-9.3-11-24.2L496,909.7Z"/><path class="cls-5" d="M573.5,908.8v22.4a3.17,3.17,0,0,0,.7,2.3,5.28,5.28,0,0,0,2.5,1.3v1.6H555.6v-1.6a5.28,5.28,0,0,0,2.5-1.3,3.17,3.17,0,0,0,.7-2.3V873.7a3.17,3.17,0,0,0-.7-2.3,5.28,5.28,0,0,0-2.5-1.3v-1.6h42.3a52.33,52.33,0,0,1,11.7,1,21.55,21.55,0,0,1,7.7,3.4,17.07,17.07,0,0,1,5.4,6.7,21.39,21.39,0,0,1,1.9,9,19.67,19.67,0,0,1-3.7,12,17.12,17.12,0,0,1-8.4,6.3c-3.5,1.3-8.4,1.9-14.6,1.9Zm0-11.2h22.6c4.5,0,7.7-.5,9.5-1.4a6.32,6.32,0,0,0,2.8-3,9.75,9.75,0,0,0,0-9,6.83,6.83,0,0,0-2.8-3c-1.8-1-5-1.4-9.5-1.4H573.5Z"/><path class="cls-5" d="M636.5,931.1V873.6a3.17,3.17,0,0,0-.7-2.3,5.28,5.28,0,0,0-2.5-1.3v-1.6h21.1V870a4.53,4.53,0,0,0-2.5,1.3,3.17,3.17,0,0,0-.7,2.3v57.5a3.61,3.61,0,0,0,.7,2.4,4.53,4.53,0,0,0,2.5,1.3v1.6H633.3v-1.6a5.28,5.28,0,0,0,2.5-1.3A3.61,3.61,0,0,0,636.5,931.1Z"/><path class="cls-5" d="M702.2,879.6v51.5a3.17,3.17,0,0,0,.7,2.3,5.28,5.28,0,0,0,2.5,1.3v1.6H684.3v-1.6a5.28,5.28,0,0,0,2.5-1.3,3.17,3.17,0,0,0,.7-2.3V879.6h-21a3.17,3.17,0,0,0-2.3.7,5.28,5.28,0,0,0-1.3,2.5h-1.6V865.2h1.6a6.36,6.36,0,0,0,1.3,2.5,3.17,3.17,0,0,0,2.3.7h56.8a3.17,3.17,0,0,0,2.3-.7,5.28,5.28,0,0,0,1.3-2.5h1.6v17.6h-1.6a5.28,5.28,0,0,0-1.3-2.5,3.17,3.17,0,0,0-2.3-.7Z"/><path class="cls-5" d="M777.2,919H746.4l-4.6,9.5a8.32,8.32,0,0,0-.9,3.1q0,2.25,3.3,3v1.6H721.8v-1.6a6,6,0,0,0,3-1.4,14.82,14.82,0,0,0,2.4-3.9l24.9-52.2a10.13,10.13,0,0,0,1.2-4c0-1.5-1-2.6-2.9-3.3v-1.6h24v1.6c-2,.6-2.9,1.5-2.9,2.9a7.47,7.47,0,0,0,.9,3.3l25.8,52.3a15.78,15.78,0,0,0,2.9,4.5,6.82,6.82,0,0,0,3.3,1.6V936H779.5v-1.6c2.2-.4,3.3-1.4,3.3-3.1a7.61,7.61,0,0,0-1-3.1Zm-4.3-9.3-11-24.2-11.2,24.2Z"/><path class="cls-5" d="M828.2,925.1h41.6a3.17,3.17,0,0,0,2.3-.7,5.28,5.28,0,0,0,1.3-2.5H875v17.6h-1.6a5.28,5.28,0,0,0-1.3-2.5,3.17,3.17,0,0,0-2.3-.7H810.2v-1.6a5.28,5.28,0,0,0,2.5-1.3,3.17,3.17,0,0,0,.7-2.3V873.6a3.17,3.17,0,0,0-.7-2.3,5.28,5.28,0,0,0-2.5-1.3v-1.6h21.1V870a4.53,4.53,0,0,0-2.5,1.3,3.29,3.29,0,0,0-.7,2.4l.1,51.4Z"/></g><g class="cls-6"><path class="cls-5" d="M681.17,815.23q8.26,0,13.33,4.31a15.74,15.74,0,0,1,2.73,20.62q-5,7.35-16,7.35-8.21,0-13.27-4.31a14.83,14.83,0,0,1-5.39-11.83,15.39,15.39,0,0,1,2.63-8.79,15.89,15.89,0,0,1,7.82-6A24.17,24.17,0,0,1,681.17,815.23Zm0,3.2a14.66,14.66,0,0,0-10.86,4.15,12.56,12.56,0,0,0,0,17.58,16.44,16.44,0,0,0,21.84,0,11.77,11.77,0,0,0,3.59-8.62,12,12,0,0,0-3.59-9C689.38,819.85,685.73,818.47,681.17,818.43Z"/><path class="cls-5" d="M710.83,820.73v23a2.84,2.84,0,0,0,.35,1.61,2.38,2.38,0,0,0,1.42.76v.75h-6.82v-.75a2.42,2.42,0,0,0,1.42-.76,2.85,2.85,0,0,0,.34-1.61V819a2.89,2.89,0,0,0-.35-1.64,2.57,2.57,0,0,0-1.41-.74v-.75h10.06v.75q-1.44.47-1.44,1.44a3.3,3.3,0,0,0,1.05,2l18.27,20.45V819a2.8,2.8,0,0,0-.36-1.64,2.57,2.57,0,0,0-1.41-.74v-.75h6.83v.75a2.57,2.57,0,0,0-1.41.74A2.8,2.8,0,0,0,737,819v24.71a2.76,2.76,0,0,0,.35,1.61,2.38,2.38,0,0,0,1.42.76v.75h-8.1v-.75c1-.24,1.44-.61,1.44-1.13s-.45-1.08-1.33-2.07Z"/><path class="cls-5" d="M751.13,832.37v11.47h19.13a2.86,2.86,0,0,0,1.65-.36,2.38,2.38,0,0,0,.73-1.41h.77v6.55h-.77a2.5,2.5,0,0,0-.72-1.41,2.76,2.76,0,0,0-1.63-.36H745.41v-.75a2.42,2.42,0,0,0,1.43-.76,2.85,2.85,0,0,0,.34-1.61V819a2.8,2.8,0,0,0-.36-1.64,2.57,2.57,0,0,0-1.41-.74v-.75H770.1a2.78,2.78,0,0,0,1.63-.36,2.57,2.57,0,0,0,.74-1.41h.75v6.55h-.75a2.53,2.53,0,0,0-.74-1.41,2.78,2.78,0,0,0-1.63-.36h-19v10.45h12.08a2.74,2.74,0,0,0,1.63-.36,2.51,2.51,0,0,0,.75-1.41h.75v6.55h-.75a2.51,2.51,0,0,0-.76-1.41,2.78,2.78,0,0,0-1.62-.35Z"/></g></svg>