<?xml version="1.0" encoding="utf-8"?>
<!-- Generator: Adobe Illustrator 25.2.0, SVG Export Plug-In . SVG Version: 6.00 Build 0)  -->
<svg version="1.1" id="Camada_1" xmlns="http://www.w3.org/2000/svg" xmlns:xlink="http://www.w3.org/1999/xlink" x="0px" y="0px"
	 viewBox="0 0 1200 1200" style="enable-background:new 0 0 1200 1200;" xml:space="preserve">
<style type="text/css">
	.st0{fill:#0F1A2E;}
	.st1{fill:url(#SVGID_3_);}
	.st2{fill:url(#SVGID_4_);}
	.st3{fill:url(#SVGID_5_);}
	.st4{fill:url(#SVGID_6_);}
	.st5{fill:url(#SVGID_7_);}
	.st6{fill:url(#SVGID_8_);}
	.st7{fill:url(#SVGID_9_);}
	.st8{fill:url(#SVGID_10_);}
	.st9{fill:url(#SVGID_11_);}
	.st10{fill:url(#SVGID_12_);}
	.st11{fill:url(#SVGID_13_);}
	.st12{fill:url(#SVGID_14_);}
	.st13{fill:url(#SVGID_15_);}
	.st14{fill:url(#SVGID_16_);}
	.st15{fill:url(#SVGID_17_);}
	.st16{fill:url(#SVGID_18_);}
	.st17{fill:url(#SVGID_19_);}
	.st18{fill:url(#SVGID_20_);}
	.st19{fill:url(#SVGID_21_);}
	.st20{fill:url(#SVGID_22_);}
	.st21{fill:url(#SVGID_23_);}
	.st22{fill:url(#SVGID_24_);}
	.st23{fill:none;stroke:url(#SVGID_25_);stroke-width:6;stroke-miterlimit:10;}
	.st24{fill:none;stroke:url(#SVGID_26_);stroke-width:6;stroke-miterlimit:10;}
</style>
<rect x="-45.6" y="-45.6" class="st0" width="1291.1" height="1291.1"/>
<g>
	<g>
		<g>
			<defs>
				<rect id="SVGID_1_" x="237.9" y="394.4" width="684.6" height="382.9"/>
			</defs>
			<clipPath id="SVGID_2_">
				<use xlink:href="#SVGID_1_"  style="overflow:visible;"/>
			</clipPath>
		</g>
	</g>
	<g>
		<linearGradient id="SVGID_3_" gradientUnits="userSpaceOnUse" x1="301.9625" y1="618.7707" x2="504.3997" y2="618.7707">
			<stop  offset="0" style="stop-color:#B28128"/>
			<stop  offset="0.11" style="stop-color:#C69C43"/>
			<stop  offset="0.21" style="stop-color:#D1AD54"/>
			<stop  offset="0.47" style="stop-color:#F5E071"/>
			<stop  offset="0.67" style="stop-color:#EEC173"/>
			<stop  offset="0.8" style="stop-color:#C59138"/>
			<stop  offset="0.92" style="stop-color:#B28128"/>
		</linearGradient>
		<polygon class="st1" points="397.3,494 302,742.9 314.7,743.5 403.5,514.1 491.4,743.2 504.4,742.9 408.8,494 		"/>
		<linearGradient id="SVGID_4_" gradientUnits="userSpaceOnUse" x1="710.8609" y1="676.8089" x2="723.2424" y2="676.8089">
			<stop  offset="0" style="stop-color:#B28128"/>
			<stop  offset="0.11" style="stop-color:#C69C43"/>
			<stop  offset="0.21" style="stop-color:#D1AD54"/>
			<stop  offset="0.47" style="stop-color:#F5E071"/>
			<stop  offset="0.67" style="stop-color:#EEC173"/>
			<stop  offset="0.8" style="stop-color:#C59138"/>
			<stop  offset="0.92" style="stop-color:#B28128"/>
		</linearGradient>
		<polygon class="st2" points="710.9,611 711.2,742.9 723.2,743.2 723.2,610.4 		"/>
		<linearGradient id="SVGID_5_" gradientUnits="userSpaceOnUse" x1="758.8392" y1="618.7707" x2="961.8954" y2="618.7707">
			<stop  offset="0" style="stop-color:#B28128"/>
			<stop  offset="0.11" style="stop-color:#C69C43"/>
			<stop  offset="0.21" style="stop-color:#D1AD54"/>
			<stop  offset="0.47" style="stop-color:#F5E071"/>
			<stop  offset="0.67" style="stop-color:#EEC173"/>
			<stop  offset="0.8" style="stop-color:#C59138"/>
			<stop  offset="0.92" style="stop-color:#B28128"/>
		</linearGradient>
		<polygon class="st3" points="854.5,494 758.8,743.2 771.8,743.5 860.7,513.8 948.6,743.2 961.9,743.5 866.6,494 		"/>
		<linearGradient id="SVGID_6_" gradientUnits="userSpaceOnUse" x1="855.7242" y1="466.9428" x2="890.702" y2="466.9428">
			<stop  offset="0" style="stop-color:#B28128"/>
			<stop  offset="0.11" style="stop-color:#C69C43"/>
			<stop  offset="0.21" style="stop-color:#D1AD54"/>
			<stop  offset="0.47" style="stop-color:#F5E071"/>
			<stop  offset="0.67" style="stop-color:#EEC173"/>
			<stop  offset="0.8" style="stop-color:#C59138"/>
			<stop  offset="0.92" style="stop-color:#B28128"/>
		</linearGradient>
		<polygon class="st4" points="879.6,443.3 855.7,483.5 865.9,490.6 890.7,450.1 		"/>
		<linearGradient id="SVGID_7_" gradientUnits="userSpaceOnUse" x1="501.155" y1="619.6151" x2="714.2658" y2="619.6151">
			<stop  offset="0" style="stop-color:#B28128"/>
			<stop  offset="0.11" style="stop-color:#C69C43"/>
			<stop  offset="0.21" style="stop-color:#D1AD54"/>
			<stop  offset="0.47" style="stop-color:#F5E071"/>
			<stop  offset="0.67" style="stop-color:#EEC173"/>
			<stop  offset="0.8" style="stop-color:#C59138"/>
			<stop  offset="0.92" style="stop-color:#B28128"/>
		</linearGradient>
		<path class="st5" d="M633.2,733.9c-0.1,0-0.2,0-0.3,0c-10.9,0.7-29.9,0.4-51-8.4c-29.9-12.5-45.2-34.1-48.3-38.7
			c-11.1-16.3-14.7-31.7-16.4-39.3c-4.1-18.3-2.8-33-2.2-40.2c0.7-7.2,1.8-18.1,6.8-31.6c4.6-12.3,10.8-21.9,16.1-28.8
			c11.6-15,24.1-23.1,27.9-25.4c9.8-6.1,18.1-8.9,23.8-10.8c6.3-2.1,20.6-6.4,39.6-6.8c7.5-0.2,22.3-0.4,40.5,5.3
			c16.9,5.2,29.6,13.2,37.8,19.5l6.8-9.3c-4.2-3.3-10.4-7.8-18.6-12.1c-3.7-1.9-21.7-11.2-48-14.2c-5.1-0.6-18.4-1.8-35.6,0.3
			c-10.4,1.3-26.3,3.4-44.6,12.7c-13.9,7.1-23.7,15.4-29.4,21c-3.4,3.3-12.9,12.9-21.4,28.2c-7,12.6-10.2,23.4-11.5,27.9
			c-4.6,17.1-4.3,30.8-4,40.5c0.3,8.8,0.7,20.5,5,35c2.3,7.7,7.1,21.5,17.3,35.9c21.8,30.7,52.2,42.4,63.5,46.1
			c9.7,3.2,25.3,7,45.2,6.2"/>
	</g>
	<linearGradient id="SVGID_8_" gradientUnits="userSpaceOnUse" x1="617.4088" y1="792.5059" x2="635.6846" y2="792.5059">
		<stop  offset="0" style="stop-color:#B28128"/>
		<stop  offset="0.11" style="stop-color:#C69C43"/>
		<stop  offset="0.21" style="stop-color:#D1AD54"/>
		<stop  offset="0.47" style="stop-color:#F5E071"/>
		<stop  offset="0.67" style="stop-color:#EEC173"/>
		<stop  offset="0.8" style="stop-color:#C59138"/>
		<stop  offset="0.92" style="stop-color:#B28128"/>
	</linearGradient>
	<path class="st6" d="M617.4,805.1v-25.2h17.7v3h-14.5v7.7h13.5v3h-13.5v8.6h15v3H617.4z"/>
	<linearGradient id="SVGID_9_" gradientUnits="userSpaceOnUse" x1="640.0655" y1="792.5059" x2="663.4548" y2="792.5059">
		<stop  offset="0" style="stop-color:#B28128"/>
		<stop  offset="0.11" style="stop-color:#C69C43"/>
		<stop  offset="0.21" style="stop-color:#D1AD54"/>
		<stop  offset="0.47" style="stop-color:#F5E071"/>
		<stop  offset="0.67" style="stop-color:#EEC173"/>
		<stop  offset="0.8" style="stop-color:#C59138"/>
		<stop  offset="0.92" style="stop-color:#B28128"/>
	</linearGradient>
	<path class="st7" d="M640.1,805.1v-25.2h4.9l5.8,17.9l1.2,3.7c0.3-0.9,0.7-2.3,1.3-4l5.9-17.6h4.4v25.2h-3.1V784l-7.1,21.1h-2.9
		l-7.1-21.5v21.5H640.1z"/>
	<linearGradient id="SVGID_10_" gradientUnits="userSpaceOnUse" x1="668.6505" y1="792.5059" x2="687.3337" y2="792.5059">
		<stop  offset="0" style="stop-color:#B28128"/>
		<stop  offset="0.11" style="stop-color:#C69C43"/>
		<stop  offset="0.21" style="stop-color:#D1AD54"/>
		<stop  offset="0.47" style="stop-color:#F5E071"/>
		<stop  offset="0.67" style="stop-color:#EEC173"/>
		<stop  offset="0.8" style="stop-color:#C59138"/>
		<stop  offset="0.92" style="stop-color:#B28128"/>
	</linearGradient>
	<path class="st8" d="M668.7,805.1v-25.2h9.2c2.2,0,3.8,0.2,4.8,0.5c1.4,0.4,2.5,1.2,3.4,2.4c0.8,1.2,1.3,2.6,1.3,4.4
		c0,2.3-0.7,4.1-2.1,5.6c-1.4,1.4-3.7,2.2-7.1,2.2h-6.3v10.3H668.7z M671.9,791.9h6.3c2,0,3.5-0.4,4.4-1.1c0.9-0.8,1.4-1.9,1.4-3.5
		c0-1-0.2-1.9-0.7-2.6c-0.5-0.7-1-1.2-1.7-1.5c-0.6-0.3-1.8-0.4-3.5-0.4h-6.3V791.9z"/>
	<linearGradient id="SVGID_11_" gradientUnits="userSpaceOnUse" x1="691.4703" y1="792.5059" x2="713.0671" y2="792.5059">
		<stop  offset="0" style="stop-color:#B28128"/>
		<stop  offset="0.11" style="stop-color:#C69C43"/>
		<stop  offset="0.21" style="stop-color:#D1AD54"/>
		<stop  offset="0.47" style="stop-color:#F5E071"/>
		<stop  offset="0.67" style="stop-color:#EEC173"/>
		<stop  offset="0.8" style="stop-color:#C59138"/>
		<stop  offset="0.92" style="stop-color:#B28128"/>
	</linearGradient>
	<path class="st9" d="M691.5,805.1v-25.2h10.9c2.3,0,3.9,0.2,5,0.7c1.1,0.5,2,1.3,2.7,2.3c0.7,1.1,1,2.4,1,3.8
		c0,1.9-0.6,3.4-1.8,4.6c-1.2,1.2-2.9,1.9-5.1,2.3c0.9,0.5,1.6,0.9,2.1,1.4c1,1,1.8,2,2.5,3.2l4.3,6.9H709l-3.3-5.3
		c-1.3-2.1-2.2-3.4-2.9-4.2c-0.6-0.7-1.3-1.2-1.9-1.4c-0.6-0.2-1.4-0.4-2.5-0.4h-3.7v11.2H691.5z M694.7,791h7
		c1.5,0,2.7-0.2,3.5-0.5c0.8-0.3,1.4-0.8,1.9-1.5c0.5-0.7,0.7-1.4,0.7-2.3c0-1.3-0.4-2.3-1.3-3c-0.9-0.7-2.2-1.1-3.9-1.1h-7.7V791z"
		/>
	<linearGradient id="SVGID_12_" gradientUnits="userSpaceOnUse" x1="716.2454" y1="792.5059" x2="734.5213" y2="792.5059">
		<stop  offset="0" style="stop-color:#B28128"/>
		<stop  offset="0.11" style="stop-color:#C69C43"/>
		<stop  offset="0.21" style="stop-color:#D1AD54"/>
		<stop  offset="0.47" style="stop-color:#F5E071"/>
		<stop  offset="0.67" style="stop-color:#EEC173"/>
		<stop  offset="0.8" style="stop-color:#C59138"/>
		<stop  offset="0.92" style="stop-color:#B28128"/>
	</linearGradient>
	<path class="st10" d="M716.2,805.1v-25.2H734v3h-14.5v7.7H733v3h-13.5v8.6h15v3H716.2z"/>
	<linearGradient id="SVGID_13_" gradientUnits="userSpaceOnUse" x1="739.0652" y1="792.5059" x2="757.3411" y2="792.5059">
		<stop  offset="0" style="stop-color:#B28128"/>
		<stop  offset="0.11" style="stop-color:#C69C43"/>
		<stop  offset="0.21" style="stop-color:#D1AD54"/>
		<stop  offset="0.47" style="stop-color:#F5E071"/>
		<stop  offset="0.67" style="stop-color:#EEC173"/>
		<stop  offset="0.8" style="stop-color:#C59138"/>
		<stop  offset="0.92" style="stop-color:#B28128"/>
	</linearGradient>
	<path class="st11" d="M739.1,805.1v-25.2h17.7v3h-14.5v7.7h13.5v3h-13.5v8.6h15v3H739.1z"/>
	<linearGradient id="SVGID_14_" gradientUnits="userSpaceOnUse" x1="761.7211" y1="792.5059" x2="781.0158" y2="792.5059">
		<stop  offset="0" style="stop-color:#B28128"/>
		<stop  offset="0.11" style="stop-color:#C69C43"/>
		<stop  offset="0.21" style="stop-color:#D1AD54"/>
		<stop  offset="0.47" style="stop-color:#F5E071"/>
		<stop  offset="0.67" style="stop-color:#EEC173"/>
		<stop  offset="0.8" style="stop-color:#C59138"/>
		<stop  offset="0.92" style="stop-color:#B28128"/>
	</linearGradient>
	<path class="st12" d="M761.7,805.1v-25.2h3.3l12.9,19.9v-19.9h3.1v25.2h-3.3l-12.9-19.9v19.9H761.7z"/>
	<linearGradient id="SVGID_15_" gradientUnits="userSpaceOnUse" x1="786.4359" y1="792.5059" x2="806.6877" y2="792.5059">
		<stop  offset="0" style="stop-color:#B28128"/>
		<stop  offset="0.11" style="stop-color:#C69C43"/>
		<stop  offset="0.21" style="stop-color:#D1AD54"/>
		<stop  offset="0.47" style="stop-color:#F5E071"/>
		<stop  offset="0.67" style="stop-color:#EEC173"/>
		<stop  offset="0.8" style="stop-color:#C59138"/>
		<stop  offset="0.92" style="stop-color:#B28128"/>
	</linearGradient>
	<path class="st13" d="M786.4,805.1v-25.2h8.5c2.1,0,3.7,0.2,4.8,0.5c1.4,0.4,2.7,1.1,3.7,2.2c1,1.1,1.9,2.4,2.4,4
		c0.6,1.6,0.9,3.6,0.9,5.8c0,2.9-0.5,5.3-1.5,7.3c-1,2-2.3,3.4-3.8,4.2c-1.6,0.8-3.6,1.2-6.1,1.2H786.4z M789.7,802.2h5.2
		c2.1,0,3.7-0.3,4.8-0.9c1.1-0.6,1.9-1.5,2.5-2.8c0.8-1.7,1.2-3.8,1.2-6.1c0-2.6-0.4-4.6-1.2-6c-0.8-1.5-1.9-2.4-3.2-2.9
		c-0.9-0.3-2.2-0.5-4.1-0.5h-5.1V802.2z"/>
	<linearGradient id="SVGID_16_" gradientUnits="userSpaceOnUse" x1="811.8218" y1="792.5059" x2="815.0611" y2="792.5059">
		<stop  offset="0" style="stop-color:#B28128"/>
		<stop  offset="0.11" style="stop-color:#C69C43"/>
		<stop  offset="0.21" style="stop-color:#D1AD54"/>
		<stop  offset="0.47" style="stop-color:#F5E071"/>
		<stop  offset="0.67" style="stop-color:#EEC173"/>
		<stop  offset="0.8" style="stop-color:#C59138"/>
		<stop  offset="0.92" style="stop-color:#B28128"/>
	</linearGradient>
	<path class="st14" d="M811.8,805.1v-25.2h3.2v25.2H811.8z"/>
	<linearGradient id="SVGID_17_" gradientUnits="userSpaceOnUse" x1="820.6238" y1="792.5059" x2="844.0137" y2="792.5059">
		<stop  offset="0" style="stop-color:#B28128"/>
		<stop  offset="0.11" style="stop-color:#C69C43"/>
		<stop  offset="0.21" style="stop-color:#D1AD54"/>
		<stop  offset="0.47" style="stop-color:#F5E071"/>
		<stop  offset="0.67" style="stop-color:#EEC173"/>
		<stop  offset="0.8" style="stop-color:#C59138"/>
		<stop  offset="0.92" style="stop-color:#B28128"/>
	</linearGradient>
	<path class="st15" d="M820.6,805.1v-25.2h4.9l5.8,17.9l1.2,3.7c0.3-0.9,0.7-2.3,1.3-4l5.9-17.6h4.4v25.2h-3.1V784l-7.1,21.1h-2.9
		l-7.1-21.5v21.5H820.6z"/>
	<linearGradient id="SVGID_18_" gradientUnits="userSpaceOnUse" x1="849.2906" y1="792.5059" x2="867.5665" y2="792.5059">
		<stop  offset="0" style="stop-color:#B28128"/>
		<stop  offset="0.11" style="stop-color:#C69C43"/>
		<stop  offset="0.21" style="stop-color:#D1AD54"/>
		<stop  offset="0.47" style="stop-color:#F5E071"/>
		<stop  offset="0.67" style="stop-color:#EEC173"/>
		<stop  offset="0.8" style="stop-color:#C59138"/>
		<stop  offset="0.92" style="stop-color:#B28128"/>
	</linearGradient>
	<path class="st16" d="M849.3,805.1v-25.2H867v3h-14.5v7.7h13.5v3h-13.5v8.6h15v3H849.3z"/>
	<linearGradient id="SVGID_19_" gradientUnits="userSpaceOnUse" x1="871.947" y1="792.5059" x2="891.2417" y2="792.5059">
		<stop  offset="0" style="stop-color:#B28128"/>
		<stop  offset="0.11" style="stop-color:#C69C43"/>
		<stop  offset="0.21" style="stop-color:#D1AD54"/>
		<stop  offset="0.47" style="stop-color:#F5E071"/>
		<stop  offset="0.67" style="stop-color:#EEC173"/>
		<stop  offset="0.8" style="stop-color:#C59138"/>
		<stop  offset="0.92" style="stop-color:#B28128"/>
	</linearGradient>
	<path class="st17" d="M871.9,805.1v-25.2h3.3l12.9,19.9v-19.9h3.1v25.2h-3.3l-12.9-19.9v19.9H871.9z"/>
	<linearGradient id="SVGID_20_" gradientUnits="userSpaceOnUse" x1="894.9504" y1="792.5059" x2="914.3669" y2="792.5059">
		<stop  offset="0" style="stop-color:#B28128"/>
		<stop  offset="0.11" style="stop-color:#C69C43"/>
		<stop  offset="0.21" style="stop-color:#D1AD54"/>
		<stop  offset="0.47" style="stop-color:#F5E071"/>
		<stop  offset="0.67" style="stop-color:#EEC173"/>
		<stop  offset="0.8" style="stop-color:#C59138"/>
		<stop  offset="0.92" style="stop-color:#B28128"/>
	</linearGradient>
	<path class="st18" d="M903,805.1v-22.3H895v-3h19.4v3h-8.1v22.3H903z"/>
	<linearGradient id="SVGID_21_" gradientUnits="userSpaceOnUse" x1="916.1393" y1="792.4974" x2="939.5695" y2="792.4974">
		<stop  offset="0" style="stop-color:#B28128"/>
		<stop  offset="0.11" style="stop-color:#C69C43"/>
		<stop  offset="0.21" style="stop-color:#D1AD54"/>
		<stop  offset="0.47" style="stop-color:#F5E071"/>
		<stop  offset="0.67" style="stop-color:#EEC173"/>
		<stop  offset="0.8" style="stop-color:#C59138"/>
		<stop  offset="0.92" style="stop-color:#B28128"/>
	</linearGradient>
	<path class="st19" d="M916.1,792.8c0-4.3,1.1-7.6,3.4-9.9c2.2-2.3,5-3.5,8.4-3.5c2.2,0,4.1,0.5,5.9,1.5c1.8,1,3.2,2.5,4.2,4.5
		c1,2,1.6,4.3,1.6,7c0,3.7-1,6.8-3,9.1c-2.2,2.6-5.1,3.9-8.7,3.9c-3.6,0-6.5-1.3-8.7-4C917.1,799.2,916.1,796.2,916.1,792.8z
		 M919.5,792.9c0,3.1,0.8,5.5,2.4,7.2s3.6,2.6,5.9,2.6c2.4,0,4.4-0.9,6-2.6c1.6-1.7,2.4-4.3,2.4-7.7c0-2.2-0.4-4.1-1.2-5.8
		c-0.6-1.3-1.6-2.4-2.9-3.1c-1.3-0.8-2.7-1.2-4.2-1.2c-2.4,0-4.5,0.9-6,2.6C920.3,786.6,919.5,789.3,919.5,792.9z"/>
	<linearGradient id="SVGID_22_" gradientUnits="userSpaceOnUse" x1="942.5856" y1="792.4974" x2="962.0839" y2="792.4974">
		<stop  offset="0" style="stop-color:#B28128"/>
		<stop  offset="0.11" style="stop-color:#C69C43"/>
		<stop  offset="0.21" style="stop-color:#D1AD54"/>
		<stop  offset="0.47" style="stop-color:#F5E071"/>
		<stop  offset="0.67" style="stop-color:#EEC173"/>
		<stop  offset="0.8" style="stop-color:#C59138"/>
		<stop  offset="0.92" style="stop-color:#B28128"/>
	</linearGradient>
	<path class="st20" d="M942.6,797l3.1-0.3c0.2,1.4,0.5,2.5,1.1,3.2c0.6,0.8,1.4,1.4,2.5,1.9c1.1,0.5,2.3,0.7,3.6,0.7
		c1.9,0,3.4-0.4,4.5-1.2c1.1-0.8,1.6-1.8,1.6-3.1c0-0.7-0.2-1.4-0.6-2c-0.4-0.6-1-1-1.8-1.4c-0.8-0.4-2.5-0.9-5.1-1.5
		c-2.3-0.6-4-1.2-4.9-1.7c-1-0.6-1.7-1.3-2.3-2.2c-0.5-0.9-0.8-1.9-0.8-3.1c0-2,0.8-3.7,2.3-5c1.6-1.3,3.7-1.9,6.3-1.9
		c1.8,0,3.4,0.3,4.8,0.9c1.4,0.6,2.4,1.5,3.2,2.6c0.8,1.1,1.2,2.5,1.2,4l-3.1,0.2c-0.2-1.6-0.7-2.9-1.7-3.7c-1-0.8-2.4-1.2-4.2-1.2
		c-1.8,0-3.2,0.3-4.2,1c-1,0.7-1.4,1.6-1.4,2.7c0,1,0.4,1.8,1.1,2.4c0.7,0.6,2.3,1.1,4.8,1.7c2.4,0.6,4.1,1.1,5.1,1.5
		c1.5,0.6,2.6,1.5,3.4,2.5c0.8,1,1.1,2.3,1.1,3.8c0,1.4-0.4,2.8-1.2,3.9c-0.8,1.2-1.9,2.1-3.3,2.7s-3,0.9-5,0.9
		c-3,0-5.4-0.8-7.2-2.3C943.6,801.7,942.7,799.6,942.6,797z"/>
	<g>
		<linearGradient id="SVGID_23_" gradientUnits="userSpaceOnUse" x1="301.9942" y1="781.3832" x2="610.0337" y2="781.3832">
			<stop  offset="0" style="stop-color:#B28128"/>
			<stop  offset="0.11" style="stop-color:#C69C43"/>
			<stop  offset="0.21" style="stop-color:#D1AD54"/>
			<stop  offset="0.47" style="stop-color:#F5E071"/>
			<stop  offset="0.67" style="stop-color:#EEC173"/>
			<stop  offset="0.8" style="stop-color:#C59138"/>
			<stop  offset="0.92" style="stop-color:#B28128"/>
		</linearGradient>
		<line class="st21" x1="302" y1="781.4" x2="610" y2="781.4"/>
		<linearGradient id="SVGID_24_" gradientUnits="userSpaceOnUse" x1="301.9942" y1="781.3832" x2="610.0335" y2="781.3832">
			<stop  offset="0" style="stop-color:#B28128"/>
			<stop  offset="0.11" style="stop-color:#C69C43"/>
			<stop  offset="0.21" style="stop-color:#D1AD54"/>
			<stop  offset="0.47" style="stop-color:#F5E071"/>
			<stop  offset="0.67" style="stop-color:#EEC173"/>
			<stop  offset="0.8" style="stop-color:#C59138"/>
			<stop  offset="0.92" style="stop-color:#B28128"/>
		</linearGradient>
		<rect x="302" y="779.9" class="st22" width="308" height="3"/>
	</g>
</g>
<linearGradient id="SVGID_25_" gradientUnits="userSpaceOnUse" x1="154.9681" y1="600" x2="1045.0319" y2="600">
	<stop  offset="0" style="stop-color:#B28128"/>
	<stop  offset="0.11" style="stop-color:#C69C43"/>
	<stop  offset="0.21" style="stop-color:#D1AD54"/>
	<stop  offset="0.47" style="stop-color:#F5E071"/>
	<stop  offset="0.67" style="stop-color:#EEC173"/>
	<stop  offset="0.8" style="stop-color:#C59138"/>
	<stop  offset="0.92" style="stop-color:#B28128"/>
</linearGradient>
<rect x="158" y="158" class="st23" width="884.1" height="884.1"/>
<linearGradient id="SVGID_26_" gradientUnits="userSpaceOnUse" x1="219.5319" y1="668.4042" x2="1104.5532" y2="668.4042">
	<stop  offset="0" style="stop-color:#B28128"/>
	<stop  offset="0.11" style="stop-color:#C69C43"/>
	<stop  offset="0.21" style="stop-color:#D1AD54"/>
	<stop  offset="0.47" style="stop-color:#F5E071"/>
	<stop  offset="0.67" style="stop-color:#EEC173"/>
	<stop  offset="0.8" style="stop-color:#C59138"/>
	<stop  offset="0.92" style="stop-color:#B28128"/>
</linearGradient>
<rect x="222.5" y="228.9" class="st24" width="879" height="879"/>
</svg>
